<mxfile host="65bd71144e">
    <diagram id="cv5FoXA2a4qS8OeoLavu" name="Page-1">
        <mxGraphModel dx="1300" dy="1026" grid="1" gridSize="10" guides="1" tooltips="1" connect="1" arrows="1" fold="1" page="1" pageScale="1" pageWidth="1169" pageHeight="827" math="0" shadow="0">
            <root>
                <mxCell id="0"/>
                <mxCell id="1" parent="0"/>
                <mxCell id="3" value="Ingreso&amp;nbsp;" style="rounded=0;whiteSpace=wrap;html=1;" parent="1" vertex="1">
                    <mxGeometry x="142.5" y="110" width="120" height="40" as="geometry"/>
                </mxCell>
                <mxCell id="6" value="Autenticacion de Usuario&amp;nbsp;" style="rounded=0;whiteSpace=wrap;html=1;" parent="1" vertex="1">
                    <mxGeometry x="112.5" y="170" width="170" height="30" as="geometry"/>
                </mxCell>
                <mxCell id="48" value="" style="endArrow=classic;html=1;entryX=0.527;entryY=-0.01;entryDx=0;entryDy=0;exitX=0.5;exitY=1;exitDx=0;exitDy=0;entryPerimeter=0;" parent="1" source="3" target="6" edge="1">
                    <mxGeometry width="50" height="50" relative="1" as="geometry">
                        <mxPoint x="302.5" y="180" as="sourcePoint"/>
                        <mxPoint x="352.5" y="130" as="targetPoint"/>
                    </mxGeometry>
                </mxCell>
                <mxCell id="49" value="" style="endArrow=none;html=1;entryX=0;entryY=0.667;entryDx=0;entryDy=0;entryPerimeter=0;" parent="1" target="6" edge="1">
                    <mxGeometry width="50" height="50" relative="1" as="geometry">
                        <mxPoint x="100" y="190" as="sourcePoint"/>
                        <mxPoint x="110" y="190" as="targetPoint"/>
                    </mxGeometry>
                </mxCell>
                <mxCell id="50" value="" style="endArrow=none;html=1;" parent="1" edge="1">
                    <mxGeometry width="50" height="50" relative="1" as="geometry">
                        <mxPoint x="100" y="350" as="sourcePoint"/>
                        <mxPoint x="100" y="190" as="targetPoint"/>
                    </mxGeometry>
                </mxCell>
                <mxCell id="51" value="" style="endArrow=classic;html=1;" parent="1" edge="1">
                    <mxGeometry width="50" height="50" relative="1" as="geometry">
                        <mxPoint x="100" y="230" as="sourcePoint"/>
                        <mxPoint x="132.5" y="230" as="targetPoint"/>
                    </mxGeometry>
                </mxCell>
                <mxCell id="52" value="" style="endArrow=classic;html=1;" parent="1" edge="1">
                    <mxGeometry width="50" height="50" relative="1" as="geometry">
                        <mxPoint x="100" y="270" as="sourcePoint"/>
                        <mxPoint x="132.5" y="270" as="targetPoint"/>
                    </mxGeometry>
                </mxCell>
                <mxCell id="85" value="" style="endArrow=none;html=1;" parent="1" edge="1">
                    <mxGeometry width="50" height="50" relative="1" as="geometry">
                        <mxPoint x="202.5" y="80" as="sourcePoint"/>
                        <mxPoint x="560" y="80" as="targetPoint"/>
                    </mxGeometry>
                </mxCell>
                <mxCell id="87" value="" style="endArrow=classic;html=1;entryX=0.5;entryY=0;entryDx=0;entryDy=0;" parent="1" target="3" edge="1">
                    <mxGeometry width="50" height="50" relative="1" as="geometry">
                        <mxPoint x="202.5" y="80" as="sourcePoint"/>
                        <mxPoint x="202.5" y="100" as="targetPoint"/>
                    </mxGeometry>
                </mxCell>
                <mxCell id="105" value="" style="endArrow=classic;html=1;" parent="1" edge="1">
                    <mxGeometry width="50" height="50" relative="1" as="geometry">
                        <mxPoint x="100" y="310" as="sourcePoint"/>
                        <mxPoint x="132.5" y="310" as="targetPoint"/>
                    </mxGeometry>
                </mxCell>
                <mxCell id="119" style="edgeStyle=none;html=1;" parent="1" source="106" edge="1">
                    <mxGeometry relative="1" as="geometry">
                        <mxPoint x="207.5" y="390" as="targetPoint"/>
                    </mxGeometry>
                </mxCell>
                <mxCell id="106" value="Ingresar" style="rounded=0;whiteSpace=wrap;html=1;" parent="1" vertex="1">
                    <mxGeometry x="132.5" y="340" width="150" height="30" as="geometry"/>
                </mxCell>
                <mxCell id="108" value="Nombre de usuario/correo:" style="shape=parallelogram;perimeter=parallelogramPerimeter;whiteSpace=wrap;html=1;fixedSize=1;size=10;" parent="1" vertex="1">
                    <mxGeometry x="127.5" y="220" width="160" height="30" as="geometry"/>
                </mxCell>
                <mxCell id="109" value="Contraseña&amp;nbsp;" style="shape=parallelogram;perimeter=parallelogramPerimeter;whiteSpace=wrap;html=1;fixedSize=1;size=10;" parent="1" vertex="1">
                    <mxGeometry x="127.5" y="260" width="160" height="30" as="geometry"/>
                </mxCell>
                <mxCell id="110" value="Datos Biometricas" style="shape=parallelogram;perimeter=parallelogramPerimeter;whiteSpace=wrap;html=1;fixedSize=1;size=10;" parent="1" vertex="1">
                    <mxGeometry x="127.5" y="300" width="160" height="30" as="geometry"/>
                </mxCell>
                <mxCell id="111" value="" style="endArrow=classic;html=1;entryX=0;entryY=0.333;entryDx=0;entryDy=0;entryPerimeter=0;" parent="1" target="106" edge="1">
                    <mxGeometry width="50" height="50" relative="1" as="geometry">
                        <mxPoint x="100" y="350" as="sourcePoint"/>
                        <mxPoint x="132.5" y="349.53" as="targetPoint"/>
                    </mxGeometry>
                </mxCell>
                <mxCell id="112" value="¿Datos Ingresados&amp;nbsp;&lt;br&gt;Correctos?" style="rhombus;whiteSpace=wrap;html=1;" parent="1" vertex="1">
                    <mxGeometry x="135" y="400" width="145" height="80" as="geometry"/>
                </mxCell>
                <mxCell id="113" value="" style="endArrow=none;html=1;entryX=0.5;entryY=1;entryDx=0;entryDy=0;" parent="1" target="112" edge="1">
                    <mxGeometry width="50" height="50" relative="1" as="geometry">
                        <mxPoint x="207.5" y="490" as="sourcePoint"/>
                        <mxPoint x="217.5" y="500" as="targetPoint"/>
                    </mxGeometry>
                </mxCell>
                <mxCell id="114" value="" style="endArrow=none;html=1;entryX=0.25;entryY=1;entryDx=0;entryDy=0;" parent="1" edge="1" target="117">
                    <mxGeometry width="50" height="50" relative="1" as="geometry">
                        <mxPoint x="102.5" y="490" as="sourcePoint"/>
                        <mxPoint x="312.5" y="490" as="targetPoint"/>
                    </mxGeometry>
                </mxCell>
                <mxCell id="116" value="No" style="text;html=1;strokeColor=none;fillColor=none;align=center;verticalAlign=middle;whiteSpace=wrap;rounded=0;" parent="1" vertex="1">
                    <mxGeometry x="127.5" y="470" width="20" height="20" as="geometry"/>
                </mxCell>
                <mxCell id="117" value="Si" style="text;html=1;strokeColor=none;fillColor=none;align=center;verticalAlign=middle;whiteSpace=wrap;rounded=0;" parent="1" vertex="1">
                    <mxGeometry x="267.5" y="470" width="20" height="20" as="geometry"/>
                </mxCell>
                <mxCell id="141" style="edgeStyle=none;html=1;exitX=0.5;exitY=1;exitDx=0;exitDy=0;entryX=0.5;entryY=0;entryDx=0;entryDy=0;" parent="1" source="120" target="127" edge="1">
                    <mxGeometry relative="1" as="geometry">
                        <mxPoint x="202.57142857142856" y="560" as="targetPoint"/>
                    </mxGeometry>
                </mxCell>
                <mxCell id="120" value="Mensaje de error&amp;nbsp;" style="rounded=0;whiteSpace=wrap;html=1;" parent="1" vertex="1">
                    <mxGeometry x="122.5" y="512" width="160" height="38" as="geometry"/>
                </mxCell>
                <mxCell id="122" value="" style="endArrow=none;html=1;" parent="1" edge="1">
                    <mxGeometry width="50" height="50" relative="1" as="geometry">
                        <mxPoint x="102.5" y="530" as="sourcePoint"/>
                        <mxPoint x="102.5" y="490" as="targetPoint"/>
                    </mxGeometry>
                </mxCell>
                <mxCell id="123" value="" style="endArrow=classic;html=1;" parent="1" edge="1">
                    <mxGeometry width="50" height="50" relative="1" as="geometry">
                        <mxPoint x="102.5" y="530" as="sourcePoint"/>
                        <mxPoint x="122.5" y="530" as="targetPoint"/>
                    </mxGeometry>
                </mxCell>
                <mxCell id="124" value="Página Principal" style="rounded=0;whiteSpace=wrap;html=1;" parent="1" vertex="1">
                    <mxGeometry x="550" y="110" width="120" height="40" as="geometry"/>
                </mxCell>
                <mxCell id="125" value="" style="endArrow=none;html=1;" parent="1" edge="1">
                    <mxGeometry width="50" height="50" relative="1" as="geometry">
                        <mxPoint x="360" y="490" as="sourcePoint"/>
                        <mxPoint x="360" y="130" as="targetPoint"/>
                    </mxGeometry>
                </mxCell>
                <mxCell id="126" value="" style="endArrow=classic;html=1;entryX=0;entryY=0.5;entryDx=0;entryDy=0;" parent="1" target="124" edge="1">
                    <mxGeometry width="50" height="50" relative="1" as="geometry">
                        <mxPoint x="360" y="130" as="sourcePoint"/>
                        <mxPoint x="600" y="110" as="targetPoint"/>
                    </mxGeometry>
                </mxCell>
                <mxCell id="127" value="¿Olvido su contraseña?" style="rhombus;whiteSpace=wrap;html=1;" parent="1" vertex="1">
                    <mxGeometry x="130" y="570" width="145" height="80" as="geometry"/>
                </mxCell>
                <mxCell id="132" value="" style="endArrow=none;html=1;entryX=0.5;entryY=1;entryDx=0;entryDy=0;" parent="1" edge="1">
                    <mxGeometry width="50" height="50" relative="1" as="geometry">
                        <mxPoint x="202.45" y="660" as="sourcePoint"/>
                        <mxPoint x="202.45" y="650" as="targetPoint"/>
                    </mxGeometry>
                </mxCell>
                <mxCell id="133" value="" style="endArrow=none;html=1;" parent="1" edge="1">
                    <mxGeometry width="50" height="50" relative="1" as="geometry">
                        <mxPoint x="80" y="660" as="sourcePoint"/>
                        <mxPoint x="320" y="660" as="targetPoint"/>
                    </mxGeometry>
                </mxCell>
                <mxCell id="134" value="No" style="text;html=1;strokeColor=none;fillColor=none;align=center;verticalAlign=middle;whiteSpace=wrap;rounded=0;" parent="1" vertex="1">
                    <mxGeometry x="125" y="640" width="20" height="20" as="geometry"/>
                </mxCell>
                <mxCell id="135" value="Si" style="text;html=1;strokeColor=none;fillColor=none;align=center;verticalAlign=middle;whiteSpace=wrap;rounded=0;" parent="1" vertex="1">
                    <mxGeometry x="265" y="640" width="20" height="20" as="geometry"/>
                </mxCell>
                <mxCell id="136" value="" style="endArrow=none;html=1;" parent="1" edge="1">
                    <mxGeometry width="50" height="50" relative="1" as="geometry">
                        <mxPoint x="80" y="660" as="sourcePoint"/>
                        <mxPoint x="80" y="170" as="targetPoint"/>
                    </mxGeometry>
                </mxCell>
                <mxCell id="137" value="" style="endArrow=classic;html=1;entryX=0;entryY=0.5;entryDx=0;entryDy=0;" parent="1" edge="1">
                    <mxGeometry width="50" height="50" relative="1" as="geometry">
                        <mxPoint x="80" y="170" as="sourcePoint"/>
                        <mxPoint x="112.5" y="170" as="targetPoint"/>
                    </mxGeometry>
                </mxCell>
                <mxCell id="140" value="" style="endArrow=classic;html=1;" parent="1" edge="1">
                    <mxGeometry width="50" height="50" relative="1" as="geometry">
                        <mxPoint x="320" y="660" as="sourcePoint"/>
                        <mxPoint x="320" y="680" as="targetPoint"/>
                    </mxGeometry>
                </mxCell>
                <mxCell id="142" value="Recuperación de cuenta&amp;nbsp;&amp;nbsp;" style="rounded=0;whiteSpace=wrap;html=1;" parent="1" vertex="1">
                    <mxGeometry x="240" y="680" width="170" height="30" as="geometry"/>
                </mxCell>
                <mxCell id="143" value="" style="endArrow=none;html=1;entryX=0;entryY=0.667;entryDx=0;entryDy=0;entryPerimeter=0;" parent="1" edge="1">
                    <mxGeometry width="50" height="50" relative="1" as="geometry">
                        <mxPoint x="220" y="700" as="sourcePoint"/>
                        <mxPoint x="240" y="700.01" as="targetPoint"/>
                    </mxGeometry>
                </mxCell>
                <mxCell id="144" value="" style="endArrow=none;html=1;" parent="1" edge="1">
                    <mxGeometry width="50" height="50" relative="1" as="geometry">
                        <mxPoint x="220" y="860" as="sourcePoint"/>
                        <mxPoint x="220" y="700" as="targetPoint"/>
                    </mxGeometry>
                </mxCell>
                <mxCell id="145" value="" style="endArrow=classic;html=1;" parent="1" edge="1">
                    <mxGeometry width="50" height="50" relative="1" as="geometry">
                        <mxPoint x="220" y="740" as="sourcePoint"/>
                        <mxPoint x="255" y="740" as="targetPoint"/>
                    </mxGeometry>
                </mxCell>
                <mxCell id="146" value="" style="endArrow=classic;html=1;" parent="1" edge="1">
                    <mxGeometry width="50" height="50" relative="1" as="geometry">
                        <mxPoint x="220" y="780" as="sourcePoint"/>
                        <mxPoint x="255" y="780" as="targetPoint"/>
                    </mxGeometry>
                </mxCell>
                <mxCell id="147" value="" style="endArrow=classic;html=1;entryX=-0.002;entryY=0.351;entryDx=0;entryDy=0;entryPerimeter=0;" parent="1" target="153" edge="1">
                    <mxGeometry width="50" height="50" relative="1" as="geometry">
                        <mxPoint x="220" y="820" as="sourcePoint"/>
                        <mxPoint x="255" y="820" as="targetPoint"/>
                    </mxGeometry>
                </mxCell>
                <mxCell id="148" value="Volver&amp;nbsp;" style="rounded=0;whiteSpace=wrap;html=1;" parent="1" vertex="1">
                    <mxGeometry x="260" y="850" width="150" height="20" as="geometry"/>
                </mxCell>
                <mxCell id="149" value="Correo Electronico:&amp;nbsp;" style="shape=parallelogram;perimeter=parallelogramPerimeter;whiteSpace=wrap;html=1;fixedSize=1;size=10;" parent="1" vertex="1">
                    <mxGeometry x="250" y="730" width="160" height="30" as="geometry"/>
                </mxCell>
                <mxCell id="150" value="Número de Telefono:&amp;nbsp;" style="shape=parallelogram;perimeter=parallelogramPerimeter;whiteSpace=wrap;html=1;fixedSize=1;size=10;" parent="1" vertex="1">
                    <mxGeometry x="250" y="770" width="160" height="30" as="geometry"/>
                </mxCell>
                <mxCell id="152" value="" style="endArrow=classic;html=1;entryX=0;entryY=0.5;entryDx=0;entryDy=0;" parent="1" target="148" edge="1">
                    <mxGeometry width="50" height="50" relative="1" as="geometry">
                        <mxPoint x="220" y="860" as="sourcePoint"/>
                        <mxPoint x="250" y="860" as="targetPoint"/>
                    </mxGeometry>
                </mxCell>
                <mxCell id="153" value="Enviar&amp;nbsp;" style="rounded=0;whiteSpace=wrap;html=1;" parent="1" vertex="1">
                    <mxGeometry x="260" y="810" width="150" height="30" as="geometry"/>
                </mxCell>
                <mxCell id="154" value="" style="endArrow=none;html=1;entryX=0;entryY=1;entryDx=0;entryDy=0;" parent="1" target="148" edge="1">
                    <mxGeometry width="50" height="50" relative="1" as="geometry">
                        <mxPoint x="60" y="870" as="sourcePoint"/>
                        <mxPoint x="330" y="760" as="targetPoint"/>
                    </mxGeometry>
                </mxCell>
                <mxCell id="158" value="" style="endArrow=none;html=1;" parent="1" edge="1">
                    <mxGeometry width="50" height="50" relative="1" as="geometry">
                        <mxPoint x="60" y="870" as="sourcePoint"/>
                        <mxPoint x="60" y="130" as="targetPoint"/>
                    </mxGeometry>
                </mxCell>
                <mxCell id="159" value="" style="endArrow=classic;html=1;entryX=0;entryY=0.5;entryDx=0;entryDy=0;" parent="1" target="3" edge="1">
                    <mxGeometry width="50" height="50" relative="1" as="geometry">
                        <mxPoint x="60" y="130" as="sourcePoint"/>
                        <mxPoint x="130" y="90" as="targetPoint"/>
                    </mxGeometry>
                </mxCell>
                <mxCell id="160" value="Te escuchamos" style="rounded=0;whiteSpace=wrap;html=1;" vertex="1" parent="1">
                    <mxGeometry x="670" y="190" width="170" height="30" as="geometry"/>
                </mxCell>
                <mxCell id="206" value="" style="endArrow=none;html=1;exitX=0.25;exitY=1;exitDx=0;exitDy=0;" edge="1" parent="1" source="117">
                    <mxGeometry width="50" height="50" relative="1" as="geometry">
                        <mxPoint x="290" y="520" as="sourcePoint"/>
                        <mxPoint x="360" y="490" as="targetPoint"/>
                    </mxGeometry>
                </mxCell>
                <mxCell id="208" value="" style="endArrow=none;html=1;entryX=0.5;entryY=1;entryDx=0;entryDy=0;" edge="1" parent="1" target="124">
                    <mxGeometry width="50" height="50" relative="1" as="geometry">
                        <mxPoint x="610" y="200" as="sourcePoint"/>
                        <mxPoint x="620" y="120" as="targetPoint"/>
                    </mxGeometry>
                </mxCell>
                <mxCell id="210" value="" style="endArrow=classic;html=1;entryX=0;entryY=0.333;entryDx=0;entryDy=0;entryPerimeter=0;" edge="1" parent="1" target="160">
                    <mxGeometry width="50" height="50" relative="1" as="geometry">
                        <mxPoint x="610" y="200" as="sourcePoint"/>
                        <mxPoint x="609.82" y="240" as="targetPoint"/>
                    </mxGeometry>
                </mxCell>
                <mxCell id="212" value="" style="endArrow=none;html=1;entryX=0;entryY=1;entryDx=0;entryDy=0;" edge="1" parent="1" target="160">
                    <mxGeometry width="50" height="50" relative="1" as="geometry">
                        <mxPoint x="640" y="220" as="sourcePoint"/>
                        <mxPoint x="640" y="160" as="targetPoint"/>
                    </mxGeometry>
                </mxCell>
                <mxCell id="213" value="" style="endArrow=none;html=1;" edge="1" parent="1">
                    <mxGeometry width="50" height="50" relative="1" as="geometry">
                        <mxPoint x="640" y="420" as="sourcePoint"/>
                        <mxPoint x="640" y="220" as="targetPoint"/>
                    </mxGeometry>
                </mxCell>
                <mxCell id="215" value="Fechas" style="shape=parallelogram;perimeter=parallelogramPerimeter;whiteSpace=wrap;html=1;fixedSize=1;size=10;" vertex="1" parent="1">
                    <mxGeometry x="675" y="240" width="160" height="30" as="geometry"/>
                </mxCell>
                <mxCell id="216" value="Información Detallada" style="shape=parallelogram;perimeter=parallelogramPerimeter;whiteSpace=wrap;html=1;fixedSize=1;size=10;" vertex="1" parent="1">
                    <mxGeometry x="675" y="280" width="160" height="30" as="geometry"/>
                </mxCell>
                <mxCell id="217" value="Ubicación" style="shape=parallelogram;perimeter=parallelogramPerimeter;whiteSpace=wrap;html=1;fixedSize=1;size=10;" vertex="1" parent="1">
                    <mxGeometry x="675" y="320" width="160" height="30" as="geometry"/>
                </mxCell>
                <mxCell id="218" value="Cualquier otro Detalle" style="shape=parallelogram;perimeter=parallelogramPerimeter;whiteSpace=wrap;html=1;fixedSize=1;size=10;" vertex="1" parent="1">
                    <mxGeometry x="675" y="360" width="160" height="30" as="geometry"/>
                </mxCell>
                <mxCell id="219" value="¿Datos Ingresados&amp;nbsp;&lt;br&gt;Correctos?" style="rhombus;whiteSpace=wrap;html=1;" vertex="1" parent="1">
                    <mxGeometry x="685" y="460" width="145" height="85" as="geometry"/>
                </mxCell>
                <mxCell id="221" value="No" style="text;html=1;strokeColor=none;fillColor=none;align=center;verticalAlign=middle;whiteSpace=wrap;rounded=0;" vertex="1" parent="1">
                    <mxGeometry x="820" y="450" width="20" height="20" as="geometry"/>
                </mxCell>
                <mxCell id="222" value="Si" style="text;html=1;strokeColor=none;fillColor=none;align=center;verticalAlign=middle;whiteSpace=wrap;rounded=0;" vertex="1" parent="1">
                    <mxGeometry x="820" y="540" width="20" height="20" as="geometry"/>
                </mxCell>
                <mxCell id="223" value="Enviar" style="rounded=0;whiteSpace=wrap;html=1;" vertex="1" parent="1">
                    <mxGeometry x="680" y="400" width="150" height="30" as="geometry"/>
                </mxCell>
                <mxCell id="224" value="" style="endArrow=classic;html=1;entryX=0.018;entryY=0.672;entryDx=0;entryDy=0;entryPerimeter=0;" edge="1" parent="1" target="215">
                    <mxGeometry width="50" height="50" relative="1" as="geometry">
                        <mxPoint x="640" y="260" as="sourcePoint"/>
                        <mxPoint x="700" y="250" as="targetPoint"/>
                    </mxGeometry>
                </mxCell>
                <mxCell id="225" value="" style="endArrow=classic;html=1;entryX=0.02;entryY=0.667;entryDx=0;entryDy=0;entryPerimeter=0;" edge="1" parent="1" target="216">
                    <mxGeometry width="50" height="50" relative="1" as="geometry">
                        <mxPoint x="640" y="300" as="sourcePoint"/>
                        <mxPoint x="675" y="300.15999999999997" as="targetPoint"/>
                    </mxGeometry>
                </mxCell>
                <mxCell id="226" value="" style="endArrow=classic;html=1;entryX=0.025;entryY=0.654;entryDx=0;entryDy=0;entryPerimeter=0;" edge="1" parent="1" target="217">
                    <mxGeometry width="50" height="50" relative="1" as="geometry">
                        <mxPoint x="640" y="340" as="sourcePoint"/>
                        <mxPoint x="675" y="340.01000000000005" as="targetPoint"/>
                    </mxGeometry>
                </mxCell>
                <mxCell id="227" value="" style="endArrow=classic;html=1;entryX=0.022;entryY=0.663;entryDx=0;entryDy=0;entryPerimeter=0;" edge="1" parent="1" target="218">
                    <mxGeometry width="50" height="50" relative="1" as="geometry">
                        <mxPoint x="640" y="380" as="sourcePoint"/>
                        <mxPoint x="675" y="380" as="targetPoint"/>
                    </mxGeometry>
                </mxCell>
                <mxCell id="228" value="" style="endArrow=classic;html=1;entryX=0.022;entryY=0.663;entryDx=0;entryDy=0;entryPerimeter=0;" edge="1" parent="1">
                    <mxGeometry width="50" height="50" relative="1" as="geometry">
                        <mxPoint x="640" y="420" as="sourcePoint"/>
                        <mxPoint x="680.0000000000001" y="419.86" as="targetPoint"/>
                    </mxGeometry>
                </mxCell>
                <mxCell id="230" value="" style="endArrow=classic;html=1;entryX=0.5;entryY=0;entryDx=0;entryDy=0;exitX=0.518;exitY=0.997;exitDx=0;exitDy=0;exitPerimeter=0;" edge="1" parent="1" source="223" target="219">
                    <mxGeometry width="50" height="50" relative="1" as="geometry">
                        <mxPoint x="730" y="450" as="sourcePoint"/>
                        <mxPoint x="780" y="400" as="targetPoint"/>
                    </mxGeometry>
                </mxCell>
                <mxCell id="231" value="" style="endArrow=classic;html=1;exitX=1;exitY=0.5;exitDx=0;exitDy=0;" edge="1" parent="1" source="222">
                    <mxGeometry width="50" height="50" relative="1" as="geometry">
                        <mxPoint x="830" y="530" as="sourcePoint"/>
                        <mxPoint x="870" y="550" as="targetPoint"/>
                    </mxGeometry>
                </mxCell>
                <mxCell id="232" value="Volver&amp;nbsp;" style="rounded=0;whiteSpace=wrap;html=1;" vertex="1" parent="1">
                    <mxGeometry x="870" y="540" width="150" height="20" as="geometry"/>
                </mxCell>
                <mxCell id="306" style="edgeStyle=none;html=1;" edge="1" parent="1" source="233">
                    <mxGeometry relative="1" as="geometry">
                        <mxPoint x="1080" y="460" as="targetPoint"/>
                    </mxGeometry>
                </mxCell>
                <mxCell id="233" value="Formulario Incorrecto" style="rounded=0;whiteSpace=wrap;html=1;" vertex="1" parent="1">
                    <mxGeometry x="870" y="445" width="150" height="30" as="geometry"/>
                </mxCell>
                <mxCell id="234" value="" style="endArrow=classic;html=1;exitX=1;exitY=0.5;exitDx=0;exitDy=0;" edge="1" parent="1">
                    <mxGeometry width="50" height="50" relative="1" as="geometry">
                        <mxPoint x="840" y="459.85" as="sourcePoint"/>
                        <mxPoint x="870" y="459.85" as="targetPoint"/>
                    </mxGeometry>
                </mxCell>
                <mxCell id="236" value="" style="endArrow=classic;html=1;entryX=1.002;entryY=0.326;entryDx=0;entryDy=0;entryPerimeter=0;" edge="1" parent="1" target="160">
                    <mxGeometry width="50" height="50" relative="1" as="geometry">
                        <mxPoint x="1080" y="200" as="sourcePoint"/>
                        <mxPoint x="910" y="140" as="targetPoint"/>
                    </mxGeometry>
                </mxCell>
                <mxCell id="237" value="" style="endArrow=none;html=1;" edge="1" parent="1">
                    <mxGeometry width="50" height="50" relative="1" as="geometry">
                        <mxPoint x="610" y="1160" as="sourcePoint"/>
                        <mxPoint x="610" y="200" as="targetPoint"/>
                    </mxGeometry>
                </mxCell>
                <mxCell id="238" value="Recopilar Pruebas" style="rounded=0;whiteSpace=wrap;html=1;" vertex="1" parent="1">
                    <mxGeometry x="670" y="580" width="170" height="30" as="geometry"/>
                </mxCell>
                <mxCell id="239" value="" style="endArrow=classic;html=1;entryX=-0.006;entryY=0.362;entryDx=0;entryDy=0;entryPerimeter=0;" edge="1" parent="1" target="238">
                    <mxGeometry width="50" height="50" relative="1" as="geometry">
                        <mxPoint x="610" y="591" as="sourcePoint"/>
                        <mxPoint x="650" y="550" as="targetPoint"/>
                    </mxGeometry>
                </mxCell>
                <mxCell id="243" value="" style="endArrow=none;html=1;entryX=0;entryY=1;entryDx=0;entryDy=0;" edge="1" parent="1">
                    <mxGeometry width="50" height="50" relative="1" as="geometry">
                        <mxPoint x="640" y="610" as="sourcePoint"/>
                        <mxPoint x="670" y="610" as="targetPoint"/>
                    </mxGeometry>
                </mxCell>
                <mxCell id="244" value="Imágenes" style="shape=parallelogram;perimeter=parallelogramPerimeter;whiteSpace=wrap;html=1;fixedSize=1;size=10;" vertex="1" parent="1">
                    <mxGeometry x="675" y="630" width="160" height="30" as="geometry"/>
                </mxCell>
                <mxCell id="245" value="Videos" style="shape=parallelogram;perimeter=parallelogramPerimeter;whiteSpace=wrap;html=1;fixedSize=1;size=10;" vertex="1" parent="1">
                    <mxGeometry x="675" y="670" width="160" height="30" as="geometry"/>
                </mxCell>
                <mxCell id="246" value="Archivos" style="shape=parallelogram;perimeter=parallelogramPerimeter;whiteSpace=wrap;html=1;fixedSize=1;size=10;" vertex="1" parent="1">
                    <mxGeometry x="675" y="710" width="160" height="30" as="geometry"/>
                </mxCell>
                <mxCell id="248" value="" style="endArrow=classic;html=1;entryX=0.018;entryY=0.672;entryDx=0;entryDy=0;entryPerimeter=0;" edge="1" parent="1" target="244">
                    <mxGeometry width="50" height="50" relative="1" as="geometry">
                        <mxPoint x="640" y="650" as="sourcePoint"/>
                        <mxPoint x="700" y="640" as="targetPoint"/>
                    </mxGeometry>
                </mxCell>
                <mxCell id="249" value="" style="endArrow=classic;html=1;entryX=0.02;entryY=0.667;entryDx=0;entryDy=0;entryPerimeter=0;" edge="1" parent="1" target="245">
                    <mxGeometry width="50" height="50" relative="1" as="geometry">
                        <mxPoint x="640" y="690" as="sourcePoint"/>
                        <mxPoint x="675" y="690.16" as="targetPoint"/>
                    </mxGeometry>
                </mxCell>
                <mxCell id="250" value="" style="endArrow=classic;html=1;entryX=0.025;entryY=0.654;entryDx=0;entryDy=0;entryPerimeter=0;" edge="1" parent="1" target="246">
                    <mxGeometry width="50" height="50" relative="1" as="geometry">
                        <mxPoint x="640" y="730" as="sourcePoint"/>
                        <mxPoint x="675" y="730.01" as="targetPoint"/>
                    </mxGeometry>
                </mxCell>
                <mxCell id="252" value="¿Datos Ingresados&amp;nbsp;&lt;br&gt;Correctos?" style="rhombus;whiteSpace=wrap;html=1;" vertex="1" parent="1">
                    <mxGeometry x="685" y="810" width="145" height="85" as="geometry"/>
                </mxCell>
                <mxCell id="253" value="No" style="text;html=1;strokeColor=none;fillColor=none;align=center;verticalAlign=middle;whiteSpace=wrap;rounded=0;" vertex="1" parent="1">
                    <mxGeometry x="820" y="800" width="20" height="20" as="geometry"/>
                </mxCell>
                <mxCell id="254" value="Si" style="text;html=1;strokeColor=none;fillColor=none;align=center;verticalAlign=middle;whiteSpace=wrap;rounded=0;" vertex="1" parent="1">
                    <mxGeometry x="820" y="890" width="20" height="20" as="geometry"/>
                </mxCell>
                <mxCell id="255" value="Enviar" style="rounded=0;whiteSpace=wrap;html=1;" vertex="1" parent="1">
                    <mxGeometry x="680" y="750" width="150" height="30" as="geometry"/>
                </mxCell>
                <mxCell id="256" value="" style="endArrow=classic;html=1;entryX=0.022;entryY=0.663;entryDx=0;entryDy=0;entryPerimeter=0;" edge="1" parent="1">
                    <mxGeometry width="50" height="50" relative="1" as="geometry">
                        <mxPoint x="640" y="770" as="sourcePoint"/>
                        <mxPoint x="680" y="769.86" as="targetPoint"/>
                    </mxGeometry>
                </mxCell>
                <mxCell id="257" value="" style="endArrow=classic;html=1;entryX=0.5;entryY=0;entryDx=0;entryDy=0;exitX=0.518;exitY=0.997;exitDx=0;exitDy=0;exitPerimeter=0;" edge="1" parent="1" source="255" target="252">
                    <mxGeometry width="50" height="50" relative="1" as="geometry">
                        <mxPoint x="730" y="800" as="sourcePoint"/>
                        <mxPoint x="780" y="750" as="targetPoint"/>
                    </mxGeometry>
                </mxCell>
                <mxCell id="258" value="" style="endArrow=classic;html=1;exitX=1;exitY=0.5;exitDx=0;exitDy=0;" edge="1" parent="1" source="254">
                    <mxGeometry width="50" height="50" relative="1" as="geometry">
                        <mxPoint x="830" y="880" as="sourcePoint"/>
                        <mxPoint x="870" y="900" as="targetPoint"/>
                    </mxGeometry>
                </mxCell>
                <mxCell id="259" value="Volver&amp;nbsp;" style="rounded=0;whiteSpace=wrap;html=1;" vertex="1" parent="1">
                    <mxGeometry x="870" y="890" width="150" height="20" as="geometry"/>
                </mxCell>
                <mxCell id="305" style="edgeStyle=none;html=1;" edge="1" parent="1" source="260">
                    <mxGeometry relative="1" as="geometry">
                        <mxPoint x="1080" y="809.9999999999999" as="targetPoint"/>
                    </mxGeometry>
                </mxCell>
                <mxCell id="260" value="Formulario Incorrecto" style="rounded=0;whiteSpace=wrap;html=1;" vertex="1" parent="1">
                    <mxGeometry x="870" y="795" width="150" height="30" as="geometry"/>
                </mxCell>
                <mxCell id="261" value="" style="endArrow=classic;html=1;exitX=1;exitY=0.5;exitDx=0;exitDy=0;" edge="1" parent="1">
                    <mxGeometry width="50" height="50" relative="1" as="geometry">
                        <mxPoint x="840" y="809.85" as="sourcePoint"/>
                        <mxPoint x="870" y="809.85" as="targetPoint"/>
                    </mxGeometry>
                </mxCell>
                <mxCell id="262" value="" style="endArrow=none;html=1;" edge="1" parent="1">
                    <mxGeometry width="50" height="50" relative="1" as="geometry">
                        <mxPoint x="640" y="770" as="sourcePoint"/>
                        <mxPoint x="640" y="610" as="targetPoint"/>
                    </mxGeometry>
                </mxCell>
                <mxCell id="263" value="Recursos de Apoyo" style="rounded=0;whiteSpace=wrap;html=1;" vertex="1" parent="1">
                    <mxGeometry x="670" y="930.04" width="170" height="30" as="geometry"/>
                </mxCell>
                <mxCell id="264" value="" style="endArrow=classic;html=1;entryX=-0.006;entryY=0.362;entryDx=0;entryDy=0;entryPerimeter=0;" edge="1" parent="1" target="263">
                    <mxGeometry width="50" height="50" relative="1" as="geometry">
                        <mxPoint x="610" y="941.04" as="sourcePoint"/>
                        <mxPoint x="650" y="900.04" as="targetPoint"/>
                    </mxGeometry>
                </mxCell>
                <mxCell id="265" value="" style="endArrow=none;html=1;entryX=0;entryY=1;entryDx=0;entryDy=0;" edge="1" parent="1">
                    <mxGeometry width="50" height="50" relative="1" as="geometry">
                        <mxPoint x="640" y="960.04" as="sourcePoint"/>
                        <mxPoint x="670" y="960.04" as="targetPoint"/>
                    </mxGeometry>
                </mxCell>
                <mxCell id="266" value="Foros de&amp;nbsp; Apoyo" style="shape=parallelogram;perimeter=parallelogramPerimeter;whiteSpace=wrap;html=1;fixedSize=1;size=10;" vertex="1" parent="1">
                    <mxGeometry x="675" y="980.04" width="160" height="30" as="geometry"/>
                </mxCell>
                <mxCell id="267" value="Recursos Educativos" style="shape=parallelogram;perimeter=parallelogramPerimeter;whiteSpace=wrap;html=1;fixedSize=1;size=10;" vertex="1" parent="1">
                    <mxGeometry x="675" y="1020.04" width="160" height="30" as="geometry"/>
                </mxCell>
                <mxCell id="268" value="Contacto de Emergencia" style="shape=parallelogram;perimeter=parallelogramPerimeter;whiteSpace=wrap;html=1;fixedSize=1;size=10;" vertex="1" parent="1">
                    <mxGeometry x="675" y="1060.04" width="160" height="30" as="geometry"/>
                </mxCell>
                <mxCell id="269" value="" style="endArrow=classic;html=1;entryX=0.018;entryY=0.672;entryDx=0;entryDy=0;entryPerimeter=0;" edge="1" parent="1" target="266">
                    <mxGeometry width="50" height="50" relative="1" as="geometry">
                        <mxPoint x="640" y="1000.04" as="sourcePoint"/>
                        <mxPoint x="700" y="990.04" as="targetPoint"/>
                    </mxGeometry>
                </mxCell>
                <mxCell id="270" value="" style="endArrow=classic;html=1;entryX=0.02;entryY=0.667;entryDx=0;entryDy=0;entryPerimeter=0;" edge="1" parent="1" target="267">
                    <mxGeometry width="50" height="50" relative="1" as="geometry">
                        <mxPoint x="640" y="1040.04" as="sourcePoint"/>
                        <mxPoint x="675" y="1040.2" as="targetPoint"/>
                    </mxGeometry>
                </mxCell>
                <mxCell id="271" value="" style="endArrow=classic;html=1;entryX=0.025;entryY=0.654;entryDx=0;entryDy=0;entryPerimeter=0;" edge="1" parent="1" target="268">
                    <mxGeometry width="50" height="50" relative="1" as="geometry">
                        <mxPoint x="640" y="1080.04" as="sourcePoint"/>
                        <mxPoint x="675" y="1080.05" as="targetPoint"/>
                    </mxGeometry>
                </mxCell>
                <mxCell id="275" value="Enviar" style="rounded=0;whiteSpace=wrap;html=1;" vertex="1" parent="1">
                    <mxGeometry x="680" y="1100.04" width="150" height="30" as="geometry"/>
                </mxCell>
                <mxCell id="276" value="" style="endArrow=classic;html=1;entryX=0.022;entryY=0.663;entryDx=0;entryDy=0;entryPerimeter=0;" edge="1" parent="1">
                    <mxGeometry width="50" height="50" relative="1" as="geometry">
                        <mxPoint x="640" y="1120.04" as="sourcePoint"/>
                        <mxPoint x="680" y="1119.9" as="targetPoint"/>
                    </mxGeometry>
                </mxCell>
                <mxCell id="282" value="" style="endArrow=none;html=1;" edge="1" parent="1">
                    <mxGeometry width="50" height="50" relative="1" as="geometry">
                        <mxPoint x="640" y="1120.04" as="sourcePoint"/>
                        <mxPoint x="640" y="960.04" as="targetPoint"/>
                    </mxGeometry>
                </mxCell>
                <mxCell id="283" value="Notif. De Emergencia" style="rounded=0;whiteSpace=wrap;html=1;" vertex="1" parent="1">
                    <mxGeometry x="670" y="1150" width="170" height="30" as="geometry"/>
                </mxCell>
                <mxCell id="284" value="" style="endArrow=classic;html=1;entryX=-0.006;entryY=0.362;entryDx=0;entryDy=0;entryPerimeter=0;" edge="1" parent="1" target="283">
                    <mxGeometry width="50" height="50" relative="1" as="geometry">
                        <mxPoint x="610" y="1161" as="sourcePoint"/>
                        <mxPoint x="650" y="1120" as="targetPoint"/>
                    </mxGeometry>
                </mxCell>
                <mxCell id="285" value="" style="endArrow=none;html=1;entryX=0;entryY=1;entryDx=0;entryDy=0;" edge="1" parent="1">
                    <mxGeometry width="50" height="50" relative="1" as="geometry">
                        <mxPoint x="640" y="1180" as="sourcePoint"/>
                        <mxPoint x="670" y="1180" as="targetPoint"/>
                    </mxGeometry>
                </mxCell>
                <mxCell id="288" value="Mensaje De Emergencia" style="shape=parallelogram;perimeter=parallelogramPerimeter;whiteSpace=wrap;html=1;fixedSize=1;size=10;" vertex="1" parent="1">
                    <mxGeometry x="675" y="1200.04" width="160" height="30" as="geometry"/>
                </mxCell>
                <mxCell id="291" value="" style="endArrow=classic;html=1;entryX=0.025;entryY=0.654;entryDx=0;entryDy=0;entryPerimeter=0;" edge="1" parent="1" target="288">
                    <mxGeometry width="50" height="50" relative="1" as="geometry">
                        <mxPoint x="640" y="1220.04" as="sourcePoint"/>
                        <mxPoint x="675" y="1220.05" as="targetPoint"/>
                    </mxGeometry>
                </mxCell>
                <mxCell id="292" value="Enviar" style="rounded=0;whiteSpace=wrap;html=1;" vertex="1" parent="1">
                    <mxGeometry x="680" y="1240.04" width="150" height="30" as="geometry"/>
                </mxCell>
                <mxCell id="293" value="" style="endArrow=classic;html=1;entryX=0.022;entryY=0.663;entryDx=0;entryDy=0;entryPerimeter=0;" edge="1" parent="1">
                    <mxGeometry width="50" height="50" relative="1" as="geometry">
                        <mxPoint x="640" y="1260.04" as="sourcePoint"/>
                        <mxPoint x="680" y="1259.9" as="targetPoint"/>
                    </mxGeometry>
                </mxCell>
                <mxCell id="294" value="" style="endArrow=none;html=1;" edge="1" parent="1">
                    <mxGeometry width="50" height="50" relative="1" as="geometry">
                        <mxPoint x="640" y="1260" as="sourcePoint"/>
                        <mxPoint x="640" y="1180" as="targetPoint"/>
                    </mxGeometry>
                </mxCell>
                <mxCell id="295" value="¿Datos Ingresados&amp;nbsp;&lt;br&gt;Correctos?" style="rhombus;whiteSpace=wrap;html=1;" vertex="1" parent="1">
                    <mxGeometry x="685" y="1300.13" width="145" height="85" as="geometry"/>
                </mxCell>
                <mxCell id="296" value="No" style="text;html=1;strokeColor=none;fillColor=none;align=center;verticalAlign=middle;whiteSpace=wrap;rounded=0;" vertex="1" parent="1">
                    <mxGeometry x="820" y="1290.13" width="20" height="20" as="geometry"/>
                </mxCell>
                <mxCell id="297" value="Si" style="text;html=1;strokeColor=none;fillColor=none;align=center;verticalAlign=middle;whiteSpace=wrap;rounded=0;" vertex="1" parent="1">
                    <mxGeometry x="820" y="1380.13" width="20" height="20" as="geometry"/>
                </mxCell>
                <mxCell id="298" value="" style="endArrow=classic;html=1;entryX=0.5;entryY=0;entryDx=0;entryDy=0;exitX=0.518;exitY=0.997;exitDx=0;exitDy=0;exitPerimeter=0;" edge="1" parent="1" target="295">
                    <mxGeometry width="50" height="50" relative="1" as="geometry">
                        <mxPoint x="757.7" y="1270.04" as="sourcePoint"/>
                        <mxPoint x="780" y="1240.13" as="targetPoint"/>
                    </mxGeometry>
                </mxCell>
                <mxCell id="299" value="" style="endArrow=classic;html=1;exitX=1;exitY=0.5;exitDx=0;exitDy=0;" edge="1" parent="1" source="297">
                    <mxGeometry width="50" height="50" relative="1" as="geometry">
                        <mxPoint x="830" y="1370.13" as="sourcePoint"/>
                        <mxPoint x="870" y="1390.13" as="targetPoint"/>
                    </mxGeometry>
                </mxCell>
                <mxCell id="300" value="Volver&amp;nbsp;" style="rounded=0;whiteSpace=wrap;html=1;" vertex="1" parent="1">
                    <mxGeometry x="870" y="1380.13" width="150" height="20" as="geometry"/>
                </mxCell>
                <mxCell id="304" style="edgeStyle=none;html=1;exitX=1;exitY=0.5;exitDx=0;exitDy=0;" edge="1" parent="1" source="301">
                    <mxGeometry relative="1" as="geometry">
                        <mxPoint x="1080" y="1300.2142857142858" as="targetPoint"/>
                    </mxGeometry>
                </mxCell>
                <mxCell id="301" value="Formulario Incorrecto" style="rounded=0;whiteSpace=wrap;html=1;" vertex="1" parent="1">
                    <mxGeometry x="870" y="1285.13" width="150" height="30" as="geometry"/>
                </mxCell>
                <mxCell id="302" value="" style="endArrow=classic;html=1;exitX=1;exitY=0.5;exitDx=0;exitDy=0;" edge="1" parent="1">
                    <mxGeometry width="50" height="50" relative="1" as="geometry">
                        <mxPoint x="840" y="1299.98" as="sourcePoint"/>
                        <mxPoint x="870" y="1299.98" as="targetPoint"/>
                    </mxGeometry>
                </mxCell>
                <mxCell id="303" value="" style="endArrow=none;html=1;" edge="1" parent="1">
                    <mxGeometry width="50" height="50" relative="1" as="geometry">
                        <mxPoint x="1080" y="1300" as="sourcePoint"/>
                        <mxPoint x="1080" y="200" as="targetPoint"/>
                    </mxGeometry>
                </mxCell>
                <mxCell id="307" value="IncryptedBox&amp;nbsp;" style="ellipse;whiteSpace=wrap;html=1;" vertex="1" parent="1">
                    <mxGeometry x="500" y="20" width="120" height="50" as="geometry"/>
                </mxCell>
                <mxCell id="309" value="" style="endArrow=none;html=1;entryX=0.5;entryY=1;entryDx=0;entryDy=0;" edge="1" parent="1" target="307">
                    <mxGeometry width="50" height="50" relative="1" as="geometry">
                        <mxPoint x="560" y="80" as="sourcePoint"/>
                        <mxPoint x="590" y="100" as="targetPoint"/>
                    </mxGeometry>
                </mxCell>
                <mxCell id="310" value="" style="endArrow=none;html=1;" edge="1" parent="1">
                    <mxGeometry width="50" height="50" relative="1" as="geometry">
                        <mxPoint x="360" y="490" as="sourcePoint"/>
                        <mxPoint x="480" y="490" as="targetPoint"/>
                    </mxGeometry>
                </mxCell>
                <mxCell id="311" value="" style="endArrow=none;html=1;" edge="1" parent="1">
                    <mxGeometry width="50" height="50" relative="1" as="geometry">
                        <mxPoint x="480" y="960" as="sourcePoint"/>
                        <mxPoint x="480" y="490" as="targetPoint"/>
                    </mxGeometry>
                </mxCell>
                <mxCell id="312" value="Footer" style="rounded=0;whiteSpace=wrap;html=1;" vertex="1" parent="1">
                    <mxGeometry x="260" y="940" width="120" height="40" as="geometry"/>
                </mxCell>
                <mxCell id="313" value="Politica de Pivacidad&amp;nbsp;" style="rounded=0;whiteSpace=wrap;html=1;" vertex="1" parent="1">
                    <mxGeometry x="240" y="1000" width="170" height="20" as="geometry"/>
                </mxCell>
                <mxCell id="314" value="Terminos y condiciones&amp;nbsp;" style="rounded=0;whiteSpace=wrap;html=1;" vertex="1" parent="1">
                    <mxGeometry x="240" y="1030" width="170" height="20" as="geometry"/>
                </mxCell>
                <mxCell id="315" value="Facebook" style="rounded=0;whiteSpace=wrap;html=1;" vertex="1" parent="1">
                    <mxGeometry x="240" y="1080" width="170" height="20" as="geometry"/>
                </mxCell>
                <mxCell id="316" value="Instagram" style="rounded=0;whiteSpace=wrap;html=1;" vertex="1" parent="1">
                    <mxGeometry x="240" y="1110" width="170" height="20" as="geometry"/>
                </mxCell>
                <mxCell id="317" value="Twitter" style="rounded=0;whiteSpace=wrap;html=1;" vertex="1" parent="1">
                    <mxGeometry x="240" y="1140" width="170" height="20" as="geometry"/>
                </mxCell>
                <mxCell id="318" value="Whatsapp" style="rounded=0;whiteSpace=wrap;html=1;" vertex="1" parent="1">
                    <mxGeometry x="240" y="1170" width="170" height="20" as="geometry"/>
                </mxCell>
                <mxCell id="319" value="&lt;h1&gt;&lt;span style=&quot;background-color: initial; font-size: 12px; font-weight: normal;&quot;&gt;-----Contacto-----&lt;/span&gt;&lt;br&gt;&lt;/h1&gt;" style="text;html=1;strokeColor=none;fillColor=none;spacing=5;spacingTop=-20;whiteSpace=wrap;overflow=hidden;rounded=0;" vertex="1" parent="1">
                    <mxGeometry x="240" y="1040" width="190" height="30" as="geometry"/>
                </mxCell>
                <mxCell id="320" value="" style="endArrow=none;html=1;exitX=0;exitY=0.5;exitDx=0;exitDy=0;" edge="1" parent="1" source="312">
                    <mxGeometry width="50" height="50" relative="1" as="geometry">
                        <mxPoint x="230" y="1090" as="sourcePoint"/>
                        <mxPoint x="220" y="960" as="targetPoint"/>
                    </mxGeometry>
                </mxCell>
                <mxCell id="321" value="" style="endArrow=none;html=1;" edge="1" parent="1">
                    <mxGeometry width="50" height="50" relative="1" as="geometry">
                        <mxPoint x="220" y="1180" as="sourcePoint"/>
                        <mxPoint x="220" y="960" as="targetPoint"/>
                    </mxGeometry>
                </mxCell>
                <mxCell id="322" value="" style="endArrow=classic;html=1;entryX=0;entryY=0.5;entryDx=0;entryDy=0;" edge="1" parent="1" target="318">
                    <mxGeometry width="50" height="50" relative="1" as="geometry">
                        <mxPoint x="220" y="1180" as="sourcePoint"/>
                        <mxPoint x="280" y="1210" as="targetPoint"/>
                    </mxGeometry>
                </mxCell>
                <mxCell id="323" value="" style="endArrow=classic;html=1;entryX=0;entryY=0.5;entryDx=0;entryDy=0;" edge="1" parent="1">
                    <mxGeometry width="50" height="50" relative="1" as="geometry">
                        <mxPoint x="220" y="1150" as="sourcePoint"/>
                        <mxPoint x="240" y="1150" as="targetPoint"/>
                    </mxGeometry>
                </mxCell>
                <mxCell id="324" value="" style="endArrow=classic;html=1;entryX=0;entryY=0.5;entryDx=0;entryDy=0;" edge="1" parent="1">
                    <mxGeometry width="50" height="50" relative="1" as="geometry">
                        <mxPoint x="220" y="1120" as="sourcePoint"/>
                        <mxPoint x="240" y="1120" as="targetPoint"/>
                    </mxGeometry>
                </mxCell>
                <mxCell id="325" value="" style="endArrow=classic;html=1;entryX=0;entryY=0.5;entryDx=0;entryDy=0;" edge="1" parent="1">
                    <mxGeometry width="50" height="50" relative="1" as="geometry">
                        <mxPoint x="220" y="1090" as="sourcePoint"/>
                        <mxPoint x="240" y="1090" as="targetPoint"/>
                    </mxGeometry>
                </mxCell>
                <mxCell id="326" value="" style="endArrow=classic;html=1;entryX=0;entryY=0.5;entryDx=0;entryDy=0;" edge="1" parent="1">
                    <mxGeometry width="50" height="50" relative="1" as="geometry">
                        <mxPoint x="220" y="1040" as="sourcePoint"/>
                        <mxPoint x="240" y="1040" as="targetPoint"/>
                    </mxGeometry>
                </mxCell>
                <mxCell id="327" value="" style="endArrow=classic;html=1;entryX=0;entryY=0.5;entryDx=0;entryDy=0;" edge="1" parent="1">
                    <mxGeometry width="50" height="50" relative="1" as="geometry">
                        <mxPoint x="220" y="1009.74" as="sourcePoint"/>
                        <mxPoint x="240" y="1009.74" as="targetPoint"/>
                    </mxGeometry>
                </mxCell>
                <mxCell id="328" value="" style="endArrow=classic;html=1;entryX=1;entryY=0.5;entryDx=0;entryDy=0;" edge="1" parent="1" target="312">
                    <mxGeometry width="50" height="50" relative="1" as="geometry">
                        <mxPoint x="480" y="960" as="sourcePoint"/>
                        <mxPoint x="420" y="1020" as="targetPoint"/>
                    </mxGeometry>
                </mxCell>
            </root>
        </mxGraphModel>
    </diagram>
</mxfile>